<svg width="270" height="550" viewBox="0 0 270 550" fill="none" xmlns="http://www.w3.org/2000/svg">
<g filter="url(#filter0_i)">
<path d="M0 275H270V415C270 489.558 209.558 550 135 550C60.4416 550 0 489.558 0 415V275Z" fill="#BE202B"/>
</g>
<path d="M2.5 135C2.5 61.8223 61.8223 2.5 135 2.5C208.178 2.5 267.5 61.8223 267.5 135V272.5H2.5V135Z" stroke="#C51A28" stroke-width="5"/>
<path d="M98.6414 183.384V216H88.5614V165.6H97.9934L119.737 198.216H119.881V165.6H129.961V216H120.529L98.7854 183.384H98.6414ZM181.45 211.536L173.098 216.36H150.562L142.21 211.536V170.064L150.562 165.24H173.098L181.45 170.064V211.536ZM152.29 173.88V207.72H171.37V173.88H152.29Z" fill="#BE202B"/>
<defs>
<filter id="filter0_i" x="0" y="275" width="270" height="276" filterUnits="userSpaceOnUse" color-interpolation-filters="sRGB">
<feFlood flood-opacity="0" result="BackgroundImageFix"/>
<feBlend mode="normal" in="SourceGraphic" in2="BackgroundImageFix" result="shape"/>
<feColorMatrix in="SourceAlpha" type="matrix" values="0 0 0 0 0 0 0 0 0 0 0 0 0 0 0 0 0 0 127 0" result="hardAlpha"/>
<feOffset dy="4"/>
<feGaussianBlur stdDeviation="0.5"/>
<feComposite in2="hardAlpha" operator="arithmetic" k2="-1" k3="1"/>
<feColorMatrix type="matrix" values="0 0 0 0 0 0 0 0 0 0 0 0 0 0 0 0 0 0 0.5 0"/>
<feBlend mode="normal" in2="shape" result="effect1_innerShadow"/>
</filter>
</defs>
</svg>
