<svg width="270" height="550" viewBox="0 0 270 550" fill="none" xmlns="http://www.w3.org/2000/svg">
<g filter="url(#filter0_i)">
<path d="M0 275H270V415C270 489.558 209.558 550 135 550C60.4416 550 0 489.558 0 415V275Z" fill="#005490"/>
</g>
<path d="M2.5 135C2.5 61.8223 61.8223 2.5 135 2.5C208.178 2.5 267.5 61.8223 267.5 135V272.5H2.5V135Z" stroke="#005490" stroke-width="5"/>
<path d="M86.573 214V192.472L70.373 163.6H81.317L91.541 182.464H91.685L101.981 163.6H112.925L96.653 192.544V214H86.573ZM130.212 192.4V205.36H150.3V214H120.132V163.6H150.3V172.24H130.212V183.76H145.98V192.4H130.212ZM159.647 188.44V168.064L167.999 163.24H186.215L194.567 168.064V177.64H184.487V171.88H169.727V183.904H186.215L194.567 188.728V209.536L186.215 214.36H167.279L158.927 209.536V199.96H169.007V205.72H184.487V193.264H167.999L159.647 188.44Z" fill="#005490"/>
<defs>
<filter id="filter0_i" x="0" y="275" width="270" height="276" filterUnits="userSpaceOnUse" color-interpolation-filters="sRGB">
<feFlood flood-opacity="0" result="BackgroundImageFix"/>
<feBlend mode="normal" in="SourceGraphic" in2="BackgroundImageFix" result="shape"/>
<feColorMatrix in="SourceAlpha" type="matrix" values="0 0 0 0 0 0 0 0 0 0 0 0 0 0 0 0 0 0 127 0" result="hardAlpha"/>
<feOffset dy="4"/>
<feGaussianBlur stdDeviation="0.5"/>
<feComposite in2="hardAlpha" operator="arithmetic" k2="-1" k3="1"/>
<feColorMatrix type="matrix" values="0 0 0 0 0 0 0 0 0 0 0 0 0 0 0 0 0 0 0.5 0"/>
<feBlend mode="normal" in2="shape" result="effect1_innerShadow"/>
</filter>
</defs>
</svg>
